<svg t="1722185179865" class="icon" viewBox="0 0 1024 1024" version="1.1" xmlns="http://www.w3.org/2000/svg" p-id="3992" width="32" height="32"><path d="M864 64H160C107 64 64 107 64 160v704c0 53 43 96 96 96h704c53 0 96-43 96-96V160c0-53-43-96-96-96zM618.6 831.4c-16.8 3-23-7.4-23-16 0-10.8 0.4-66 0.4-110.6 0-31.2-10.4-51-22.6-61.4 74-8.2 152-18.4 152-146.2 0-36.4-13-54.6-34.2-78 3.4-8.6 14.8-44-3.4-90-27.8-8.6-91.4 35.8-91.4 35.8-26.4-7.4-55-11.2-83.2-11.2-28.2 0-56.8 3.8-83.2 11.2 0 0-63.6-44.4-91.4-35.8-18.2 45.8-7 81.2-3.4 90-21.2 23.4-31.2 41.6-31.2 78 0 127.2 74.6 138 148.6 146.2-9.6 8.6-18.2 23.4-21.2 44.6-19 8.6-67.6 23.4-96.6-27.8-18.2-31.6-51-34.2-51-34.2-32.4-0.4-2.2 20.4-2.2 20.4 21.6 10 36.8 48.4 36.8 48.4 19.4 59.4 112.2 39.4 112.2 39.4 0 27.8 0.4 73 0.4 81.2 0 8.6-6 19-23 16-132-44.2-224.4-169.8-224.4-316.6 0-183.6 140.4-323 324-323S840 331.2 840 514.8c0.2 146.8-89.4 272.6-221.4 316.6z m-196.2-122.2c-3.8 0.8-7.4-0.8-7.8-3.4-0.4-3 2.2-5.6 6-6.4 3.8-0.4 7.4 1.2 7.8 3.8 0.6 2.6-2 5.2-6 6z m-19-1.8c0 2.6-3 4.8-7 4.8-4.4 0.4-7.4-1.8-7.4-4.8 0-2.6 3-4.8 7-4.8 3.8-0.4 7.4 1.8 7.4 4.8z m-27.4-2.2c-0.8 2.6-4.8 3.8-8.2 2.6-3.8-0.8-6.4-3.8-5.6-6.4 0.8-2.6 4.8-3.8 8.2-3 4 1.2 6.6 4.2 5.6 6.8z m-24.6-10.8c-1.8 2.2-5.6 1.8-8.6-1.2-3-2.6-3.8-6.4-1.8-8.2 1.8-2.2 5.6-1.8 8.6 1.2 2.6 2.6 3.6 6.6 1.8 8.2z m-18.2-18.2c-1.8 1.2-5.2 0-7.4-3s-2.2-6.4 0-7.8c2.2-1.8 5.6-0.4 7.4 2.6 2.2 3 2.2 6.6 0 8.2z m-13-19.4c-1.8 1.8-4.8 0.8-7-1.2-2.2-2.6-2.6-5.6-0.8-7 1.8-1.8 4.8-0.8 7 1.2 2.2 2.6 2.6 5.6 0.8 7z m-13.4-14.8c-0.8 1.8-3.4 2.2-5.6 0.8-2.6-1.2-3.8-3.4-3-5.2 0.8-1.2 3-1.8 5.6-0.8 2.6 1.4 3.8 3.6 3 5.2z" fill="" p-id="3993" data-spm-anchor-id="a313x.search_index.0.i16.21af3a81qE9MUL" class=""></path></svg>
